<svg width="69" height="25" viewBox="0 0 69 25" fill="none" xmlns="http://www.w3.org/2000/svg">
<path fill-rule="evenodd" clip-rule="evenodd" d="M50.3025 3.41259C53.5754 3.7241 56.1381 4.66544 58.6958 5.6995C67.0835 9.09445 69.7 13.6161 63.6094 17.4381C54.1394 23.3634 32.696 26.1478 16.3652 22.9816C12.7484 22.2825 7.84021 21.543 4.34623 19.1454C1.09598 16.916 1.36785 14.5623 3.03042 12.4845C4.72408 10.3533 7.86428 8.50525 10.3471 7.35063C21.2017 2.31459 42.5864 -1.43622 61.5062 2.70689C61.8953 2.78848 62.2927 2.72467 62.414 2.56582C62.5354 2.40698 62.3491 2.21397 61.988 2.13438C42.5125 -2.12981 20.4493 1.68582 9.27716 6.86854C6.18783 8.30876 2.11262 10.7905 0.832807 13.5689C-0.0324186 15.4686 0.388263 17.504 3.20436 19.4505C6.91463 22.0036 12.1276 22.8254 15.9669 23.569C32.8262 26.8387 55.0047 23.9806 64.7668 17.8597C71.3232 13.7524 68.5573 8.89133 59.5369 5.2419C56.7872 4.12177 53.9744 3.12245 50.4218 2.7845C50.0302 2.74736 49.6867 2.858 49.6769 3.03301C49.6392 3.20601 49.9389 3.37745 50.3025 3.41259Z" fill="#FEFEFE"/>
</svg>
