<svg width="24" height="44" viewBox="0 0 24 44" fill="none" xmlns="http://www.w3.org/2000/svg">
<path fill-rule="evenodd" clip-rule="evenodd" d="M19.9169 12.6055L19.8929 12.6275C19.7878 12.7161 19.6789 12.8037 19.6135 12.8715C18.7233 13.7966 17.4367 14.4642 16.2843 14.9911C13.5265 16.2504 10.8353 17.6585 8.17403 19.1164C7.42834 19.5248 6.7325 20.0247 6.01536 20.4804C5.80326 20.6155 5.59439 20.7534 5.3846 20.8912C5.29388 20.9521 5.0749 21.0305 4.9731 21.0916C4.89921 21.1348 4.85559 21.185 4.83419 21.2199C4.78203 21.3095 4.78584 21.3927 4.82117 21.4672C4.84333 21.5158 4.89051 21.5873 5.01456 21.6195C6.32007 21.9541 8.19947 21.7825 10.2159 21.4109C13.1775 20.8652 16.4395 19.8964 18.5554 19.5738C19.1117 19.4894 20.2168 19.1204 21.1963 18.9198C21.6304 18.83 22.0372 18.7674 22.3433 18.7956C22.1237 18.9135 21.8369 19.0346 21.6878 19.1297C21.0439 19.541 20.3397 19.8509 19.6741 20.2229C17.6493 21.3537 12.2177 26.0079 10.5568 27.6596C9.21292 28.9952 2.28037 37.323 0.255094 43.3021C0.211622 43.4306 0.278958 43.5694 0.406093 43.6126C0.533229 43.6559 0.671494 43.5863 0.714711 43.4588C2.71576 37.5513 9.56923 29.3273 10.8968 28.0076C12.5396 26.3744 17.906 21.7687 19.907 20.6518C20.5818 20.2752 21.2937 19.9593 21.946 19.5431C22.1812 19.3929 22.7263 19.1704 22.9111 18.9985C23.0155 18.9016 23.0507 18.7963 23.0488 18.7135C23.0458 18.6122 23.0023 18.4929 22.8292 18.4151C22.5455 18.2883 22.1015 18.28 21.5894 18.353C20.5231 18.5059 19.1317 18.9911 18.485 19.0899C16.3661 19.4126 13.098 20.3819 10.1308 20.9292C8.47725 21.2335 6.92012 21.4102 5.72053 21.2543C5.90385 21.1328 6.0876 21.0135 6.27323 20.8947C6.98109 20.4437 7.66716 19.9502 8.40357 19.5465C11.0551 18.0952 13.736 16.6914 16.4825 15.4371C17.6886 14.886 19.0299 14.1793 19.9614 13.2124C20.0924 13.076 20.3984 12.8533 20.4884 12.7048C20.5461 12.6096 20.5553 12.5187 20.5386 12.4462C20.5193 12.3567 20.4652 12.2661 20.3257 12.2165C19.7553 12.0119 18.7239 11.9264 17.4957 11.9182C14.7061 11.9008 10.8797 12.2635 9.30863 12.3462C8.25345 12.4016 7.19462 12.5007 6.13844 12.5223C6.08586 12.5234 5.08336 12.4609 4.60602 12.4305C4.76832 12.1887 5.05211 11.8799 5.39171 11.5353C6.58641 10.3252 8.50647 8.76017 9.08296 8.278C10.1883 7.35266 11.3145 6.45829 12.3986 5.50697C14.1096 4.00573 15.7698 2.45027 17.4969 0.967573C17.5997 0.880372 17.6121 0.725301 17.5259 0.623011C17.439 0.519522 17.2854 0.507784 17.1835 0.595236C15.4543 2.07838 13.7927 3.63549 12.0803 5.13837C10.9999 6.08665 9.87639 6.97867 8.77369 7.90167C8.19192 8.38852 6.25459 9.96925 5.04883 11.1906C4.49583 11.7501 4.09881 12.2489 4.00803 12.5464C3.98381 12.6293 3.98366 12.81 4.2085 12.8824C4.49636 12.9748 6.07102 13.0139 6.14575 13.0126C7.20713 12.9904 8.27114 12.8907 9.33127 12.8356C10.8972 12.7536 14.7103 12.3913 17.4899 12.4091C18.4904 12.4152 19.354 12.4669 19.9169 12.6055Z" fill="#FEFEFE"/>
</svg>
