<svg width="8" height="10" viewBox="0 0 8 10" fill="none" xmlns="http://www.w3.org/2000/svg">
<path fill-rule="evenodd" clip-rule="evenodd" d="M3.162 1.81625C3.13847 1.66971 3.12075 1.52483 3.1093 1.37993C3.09204 1.16258 3.10271 0.943574 3.09659 0.726227C3.09393 0.63402 3.08341 0.393625 3.08765 0.359047C3.12608 0.0577259 3.35776 0.0116165 3.42552 0.0033837C3.4583 -0.00155599 3.79491 -0.0410558 3.86754 0.350826C3.95663 0.829976 3.98518 1.31241 3.95365 1.78498C4.02722 2.18674 4.15302 2.58684 4.31913 2.94909C4.98012 4.38983 6.23968 4.52979 7.60433 4.51662C7.8142 4.51333 7.98847 4.68621 7.99945 4.9052C8.01044 5.12584 7.85421 5.31684 7.64527 5.3366C6.88248 5.41399 5.52912 6.05616 5.06121 6.72466C4.96333 6.86462 4.9064 7.20217 4.83111 7.53313C4.72601 7.99252 4.601 8.44697 4.46093 8.63797C4.43991 8.66761 4.18439 8.97058 4.10815 9.01504C3.92495 9.12042 3.77829 9.05949 3.695 9.0035C3.61171 8.94752 3.51744 8.8372 3.47979 8.65443C3.44042 8.46343 3.47367 8.07154 3.46756 7.98757C3.44528 7.68295 3.38725 7.08525 3.26882 6.57153C3.20498 6.2949 3.1369 6.03969 3.02428 5.9129C2.60736 5.44363 1.94072 5.51279 1.37933 5.59018C1.31486 5.59841 1.25039 5.6083 1.18608 5.61653C0.957542 5.68733 0.71488 5.74001 0.458419 5.7713C0.071141 5.81905 0.00746157 5.44528 0.00401073 5.42058C-0.00320466 5.36624 -0.0300299 5.08633 0.26188 4.97437C0.293722 4.96284 0.528695 4.9085 0.619201 4.88709C0.745314 4.85746 0.872835 4.83441 1.00083 4.81301C2.32297 4.38161 3.04106 3.16973 3.162 1.81625ZM3.61579 3.31299C4.1149 4.39643 4.87236 4.92003 5.77021 5.15713H5.77005C5.20945 5.46504 4.6995 5.85035 4.42924 6.23729C4.32666 6.38383 4.23254 6.67856 4.14768 7.00952C4.10173 6.70161 4.03961 6.37393 3.95758 6.09402C3.86425 5.77459 3.7386 5.50951 3.59837 5.35144C3.32764 5.04682 2.98789 4.87722 2.62257 4.79325C3.05988 4.38655 3.39148 3.87941 3.61579 3.31299Z" fill="#FEFEFE"/>
</svg>
